<?xml version="1.0" encoding="utf-8"?>
<!-- Generator: Adobe Illustrator 15.0.0, SVG Export Plug-In  -->
<!DOCTYPE svg PUBLIC "-//W3C//DTD SVG 1.1 Basic//EN" "http://www.w3.org/Graphics/SVG/1.1/DTD/svg11-basic.dtd" [
	<!ENTITY ns_flows "http://ns.adobe.com/Flows/1.0/">
]>
<svg version="1.1" baseProfile="basic"
	 xmlns="http://www.w3.org/2000/svg" xmlns:xlink="http://www.w3.org/1999/xlink" xmlns:a="http://ns.adobe.com/AdobeSVGViewerExtensions/3.0/"
	 x="0px" y="0px" width="40px" height="40px" viewBox="0 0 40 40" enable-background="new 0 0 40 40" xml:space="preserve">
<defs>
</defs>
<path fill="#FFFFFF" d="M10.509,36.664c-0.451,0-0.679-0.05-0.679-0.05c-0.13-0.028-0.273-0.089-0.38-0.17l-5.577-4.231
	c-0.209-0.16-0.341-0.401-0.357-0.668c-0.016-0.267,0.083-0.522,0.271-0.707l7.555-7.379c0.332-0.323,0.851-0.344,1.211-0.053
	l3.209,2.622l6.059-5.61l5.201-5.229l-3.046-2.885c-0.178-0.168-0.281-0.401-0.284-0.646c-0.004-0.245,0.092-0.481,0.265-0.655
	l7.137-7.18c0.178-0.181,0.412-0.293,0.675-0.268c0.256,0.009,0.49,0.124,0.657,0.316l4.544,5.286
	c0.171,0.195,0.245,0.453,0.213,0.709c-0.042,0.344-1.18,8.506-9.357,16.56C18.441,35.666,12.588,36.664,10.509,36.664z
	 M10.345,34.838c1.13,0.057,6.657-0.306,16.202-9.705c6.76-6.657,8.44-13.45,8.768-15.114L31.69,5.804l-5.787,5.821l3.045,2.885
	c0.178,0.169,0.28,0.401,0.284,0.646c0.003,0.245-0.093,0.481-0.263,0.655l-5.885,5.918l-6.667,6.174
	c-0.334,0.306-0.844,0.327-1.194,0.036l-3.194-2.611l-6.217,6.071L10.345,34.838z"/>
<rect fill="none" width="40" height="40"/>
</svg>
